<?xml version="1.0" standalone="no"?>
<!DOCTYPE svg PUBLIC "-//W3C//DTD SVG 20010904//EN"
 "http://www.w3.org/TR/2001/REC-SVG-20010904/DTD/svg10.dtd">
<svg version="1.0" xmlns="http://www.w3.org/2000/svg"
 width="1024.000000pt" height="1024.000000pt" viewBox="0 0 1024.000000 1024.000000"
 preserveAspectRatio="xMidYMid meet">

<g transform="translate(0.000000,1024.000000) scale(0.100000,-0.100000)"
fill="#000000" stroke="none">
<path d="M4900 8684 c-549 -34 -1124 -209 -1571 -480 -597 -361 -1063 -872
-1364 -1496 -171 -356 -265 -668 -322 -1069 -22 -158 -26 -729 -5 -879 59
-431 152 -744 332 -1117 438 -910 1254 -1614 2182 -1882 624 -180 1403 -171
2009 25 660 212 1203 594 1680 1179 414 509 677 1118 766 1775 26 192 26 733
0 900 -111 719 -363 1281 -815 1821 -89 105 -297 314 -407 406 -509 429 -1205
719 -1915 798 -139 15 -454 26 -570 19z m505 -259 c614 -68 1172 -277 1639
-613 125 -90 222 -174 359 -310 533 -528 847 -1165 954 -1932 26 -189 23 -592
-6 -804 -54 -398 -163 -749 -336 -1084 -72 -139 -210 -367 -258 -426 l-24 -29
-109 31 c-139 39 -249 60 -387 72 -60 5 -111 11 -113 13 -2 2 26 68 61 148 36
79 72 159 80 177 l15 32 77 -6 c90 -7 184 11 261 50 151 77 305 250 327 368 7
34 4 41 -28 73 l-36 36 74 74 c95 95 155 212 162 314 4 57 2 70 -16 93 -25 31
-71 46 -153 49 -32 1 -58 3 -58 4 0 1 15 37 34 81 43 98 66 219 67 345 0 106
-11 165 -40 201 -16 19 -28 23 -69 22 -135 -2 -342 -190 -412 -375 l-22 -57
-41 24 c-24 14 -58 24 -81 24 -75 0 -140 -100 -167 -256 -11 -64 -8 -182 7
-231 6 -21 3 -23 -38 -23 -24 0 -54 -7 -66 -16 -57 -40 -87 -161 -80 -321 4
-91 10 -121 37 -190 18 -46 52 -110 77 -143 24 -33 44 -64 44 -69 0 -4 -21
-55 -46 -112 -25 -57 -64 -147 -86 -199 -22 -52 -46 -100 -52 -106 -6 -6 -46
-14 -88 -18 l-76 -6 24 44 c52 92 68 184 67 386 0 185 -14 328 -68 730 -46
349 -49 385 -36 417 7 17 53 66 104 109 447 387 707 665 853 914 144 244 104
465 -108 606 -216 144 -546 220 -1293 299 -95 10 -159 22 -174 32 -15 9 -46
65 -84 147 -268 577 -482 940 -662 1122 -119 121 -221 161 -362 143 -122 -16
-215 -86 -347 -263 -156 -209 -277 -417 -478 -824 -119 -241 -155 -307 -178
-321 -20 -12 -71 -21 -157 -30 -753 -73 -1178 -181 -1360 -346 -36 -32 -73
-78 -93 -117 -31 -56 -35 -73 -38 -158 -4 -83 -1 -105 23 -175 72 -215 268
-452 754 -908 l214 -202 -6 -80 c-3 -44 -22 -197 -41 -340 -47 -349 -65 -514
-76 -674 -5 -74 -13 -138 -17 -142 -4 -4 -46 -9 -92 -11 l-84 -3 -42 100 c-23
55 -50 123 -59 150 l-18 50 63 67 c135 141 198 294 201 484 1 97 -22 177 -58
201 -56 36 -166 -21 -255 -131 -56 -71 -87 -92 -74 -54 42 131 40 273 -4 398
-69 197 -276 405 -435 441 -105 23 -138 -18 -144 -183 -12 -320 157 -610 416
-713 31 -13 43 -26 60 -63 25 -57 39 -101 51 -164 8 -48 3 -59 -18 -34 -6 7
-42 27 -79 44 -185 86 -422 97 -461 24 -32 -61 17 -169 119 -266 117 -110 252
-163 385 -153 39 3 76 7 83 9 14 3 120 -227 110 -238 -4 -3 -55 -17 -114 -30
-136 -32 -276 -77 -377 -121 -43 -19 -80 -33 -81 -31 -12 14 -92 160 -129 233
-175 350 -283 723 -332 1140 -17 150 -20 475 -5 626 79 799 422 1521 981 2065
357 347 775 598 1254 754 175 57 389 106 543 124 70 9 141 17 157 19 85 11
473 5 590 -8z m-229 -350 c88 -37 225 -208 389 -490 95 -163 252 -469 340
-665 105 -235 131 -250 493 -290 511 -56 720 -93 937 -166 206 -69 285 -145
285 -274 0 -103 -67 -222 -233 -415 -109 -128 -352 -363 -587 -567 -195 -169
-220 -205 -220 -321 0 -38 20 -225 44 -416 61 -472 69 -552 70 -731 1 -192
-14 -249 -84 -321 -82 -85 -189 -90 -401 -19 -195 65 -656 301 -930 476 -99
63 -144 84 -183 84 -39 0 -92 -27 -316 -159 -289 -172 -730 -376 -920 -427
-86 -23 -215 -24 -255 -2 -110 60 -154 186 -141 407 8 140 33 357 88 756 47
351 50 422 20 482 -13 24 -84 102 -169 184 -326 315 -544 539 -627 644 -232
292 -234 470 -8 584 185 92 517 161 980 201 464 40 452 33 619 380 254 526
437 833 594 992 83 85 141 104 215 73z m-2730 -2851 c145 -92 258 -261 283
-424 10 -64 2 -143 -15 -160 -17 -16 -94 33 -156 99 -112 118 -167 247 -175
414 -3 59 -3 107 1 107 4 0 32 -16 62 -36z m5414 -51 c-1 -179 -49 -309 -157
-424 -36 -38 -69 -69 -73 -69 -17 0 -45 128 -45 205 0 69 5 89 32 145 36 73
110 156 180 200 26 17 51 30 55 30 4 0 8 -39 8 -87z m-445 -354 c88 -98 118
-248 77 -386 -12 -37 -28 -77 -36 -88 -14 -20 -15 -19 -51 15 -20 19 -53 68
-73 109 -33 67 -37 83 -40 172 -4 102 7 175 34 217 18 28 35 20 89 -39z m570
-199 c11 -18 -16 -82 -63 -153 -47 -72 -115 -133 -192 -172 -52 -26 -168 -51
-181 -38 -12 12 14 102 47 164 70 127 196 203 346 208 20 1 40 -4 43 -9z
m-4905 -190 c-7 -30 -23 -80 -37 -110 -26 -60 -103 -180 -115 -180 -5 0 -8 44
-8 98 0 79 5 108 24 155 27 65 59 115 108 167 l33 35 3 -55 c2 -30 -2 -80 -8
-110z m4120 -55 c39 -20 97 -98 111 -149 7 -23 9 -77 6 -124 -4 -69 -11 -96
-38 -148 -18 -36 -37 -63 -43 -61 -23 7 -85 115 -105 182 -33 110 -24 249 20
302 14 16 14 16 49 -2z m-4650 -192 c41 -13 91 -34 110 -45 38 -23 120 -98
120 -110 0 -15 -74 -20 -126 -9 -29 7 -79 25 -111 41 -58 29 -173 129 -173
150 0 17 88 4 180 -27z m5203 -43 c18 0 38 -4 45 -9 36 -22 -107 -195 -210
-254 -92 -53 -239 -71 -255 -31 -16 43 126 217 212 259 52 26 138 46 163 39 8
-2 28 -4 45 -4z m-2539 -454 c239 -148 615 -352 776 -420 l65 -28 -135 -44
c-74 -24 -143 -44 -152 -44 -10 0 -82 33 -160 73 -246 125 -511 232 -740 297
-65 19 -115 37 -110 41 4 4 66 40 137 80 72 40 144 81 160 91 17 10 36 18 43
18 7 0 59 -29 116 -64z m-1915 -227 c27 -87 70 -156 132 -214 71 -65 125 -85
234 -85 180 0 359 51 637 181 168 79 175 81 230 75 214 -22 545 -129 841 -273
l158 -77 -73 -28 c-220 -87 -487 -239 -747 -427 -77 -55 -143 -101 -146 -101
-3 0 -54 34 -112 76 -397 286 -847 471 -1338 551 -70 11 -170 17 -334 17
l-233 1 -59 80 -59 80 63 28 c188 87 589 180 746 174 l43 -2 17 -56z m4003
-318 c150 -24 318 -62 318 -71 0 -4 -19 -31 -42 -60 l-43 -52 -55 6 c-303 34
-669 7 -987 -73 -544 -138 -1070 -450 -1560 -924 l-103 -100 -112 13 c-129 13
-358 54 -436 76 l-52 15 52 42 c29 22 105 86 168 142 319 280 523 429 795 578
377 207 911 373 1340 416 61 6 126 13 145 15 92 11 451 -4 572 -23z m-4267
-185 c429 -46 826 -194 1235 -463 80 -52 147 -97 150 -100 3 -3 -24 -30 -60
-61 -36 -31 -124 -112 -195 -179 l-131 -121 -89 34 c-270 104 -566 281 -845
503 -102 81 -308 276 -371 352 l-39 47 103 1 c56 1 165 -5 242 -13z m4334
-173 c-33 -39 -225 -206 -335 -289 -519 -396 -1138 -616 -1799 -641 l-160 -5
20 20 c40 41 333 286 425 356 172 130 458 294 640 366 107 43 309 109 411 134
222 54 379 72 648 75 151 1 162 0 150 -16z"/>
<path d="M4303 6140 c-188 -96 -225 -408 -64 -553 89 -80 192 -72 296 24 118
109 135 324 37 454 -45 59 -98 88 -171 93 -43 2 -66 -2 -98 -18z m232 -155
c49 -49 17 -145 -49 -145 -35 0 -66 43 -66 91 0 73 66 104 115 54z"/>
<path d="M5705 6131 c-142 -82 -187 -296 -97 -465 112 -208 367 -162 442 80
24 79 25 120 5 197 -47 181 -210 268 -350 188z m235 -146 c48 -51 15 -145 -51
-145 -37 0 -69 41 -69 89 0 74 72 107 120 56z"/>
<path d="M4694 5384 c-26 -39 -31 -166 -9 -240 49 -170 158 -288 309 -336 73
-23 197 -20 261 6 102 43 218 171 266 295 32 80 33 231 4 261 l-21 20 -84 -24
c-219 -64 -380 -59 -584 15 -99 36 -121 36 -142 3z m461 -325 c33 -6 81 -22
107 -35 47 -24 48 -25 33 -48 -9 -13 -34 -37 -57 -52 -34 -24 -54 -29 -114
-32 -61 -4 -81 0 -127 21 -30 13 -73 42 -96 62 -40 36 -41 38 -22 51 53 38
174 52 276 33z"/>
</g>
</svg>
